<?xml version="1.0" encoding="UTF-8" standalone="no"?>
<!DOCTYPE svg PUBLIC "-//W3C//DTD SVG 1.1//EN" "http://www.w3.org/Graphics/SVG/1.1/DTD/svg11.dtd">
<svg width="100%" height="100%" viewBox="0 0 584 180" version="1.1" xmlns="http://www.w3.org/2000/svg" xmlns:xlink="http://www.w3.org/1999/xlink" xml:space="preserve" xmlns:serif="http://www.serif.com/" style="fill-rule:evenodd;clip-rule:evenodd;stroke-linejoin:round;stroke-miterlimit:2;">
    <g transform="matrix(1,0,0,1,0.000016,0.000001)">
        <g transform="matrix(0.247711,0,0,0.247711,-13.556402,-7.428595)">
            <g>
                <path d="M249.52,562.61C249.505,562.645 249.497,562.682 249.497,562.72C249.497,562.866 249.614,562.986 249.76,562.99C312.72,563.023 355.42,563.013 377.86,562.96C390.093,562.927 398.637,563.457 403.49,564.55C451.01,575.25 468.51,633.74 433.99,668.47C422.043,680.49 407.383,686.517 390.01,686.55C350.51,686.617 273.313,686.633 158.42,686.6C148.653,686.6 141.597,686.13 137.25,685.19C113.72,680.11 95.77,661.64 90.38,638.52C88.053,628.553 88.33,618.28 91.21,607.7C92.21,604.02 96.023,595.517 102.65,582.19C104.67,578.137 177.533,428.48 321.24,133.22C336.91,101.04 376.47,88.81 407.84,106.86C417.647,112.5 425.433,120.567 431.2,131.06C431.947,132.413 433.993,136.54 437.34,143.44C460.827,191.88 532.55,339.223 652.51,585.47C658.523,597.81 662.027,606.077 663.02,610.27C674.83,660.13 624.78,702.06 577.83,681.19C564.23,675.143 554.09,665.283 547.41,651.61C536.39,629.063 479.6,512.427 377.04,301.7C377.026,301.674 377.008,301.649 376.986,301.628C376.873,301.516 376.691,301.514 376.583,301.623C376.561,301.645 376.543,301.671 376.53,301.7L249.52,562.61Z" style="fill:rgb(25,25,25);fill-rule:nonzero;"/>
                <circle cx="788.89" cy="160.13" r="61.64" style="fill:rgb(197,35,64);"/>
                <path d="M1053.35,463.25C1053.29,552.517 1053.303,602.083 1053.39,611.95C1053.503,624.99 1053.02,633.827 1051.94,638.46C1041.1,685.2 983.53,703.01 949.14,668.61C940.613,660.083 935.04,650.143 932.42,638.79C931.413,634.43 930.913,626.53 930.92,615.09C930.98,376.43 930.97,229.493 930.89,174.28C930.87,160.213 931.347,151.063 932.32,146.83C938.42,120.34 960.73,100.48 988.35,98.65C1024.06,96.28 1053.34,125.32 1053.33,160.5C1053.323,251.927 1053.327,311.867 1053.34,340.32C1053.34,340.49 1053.48,340.63 1053.65,340.63C1111.717,340.69 1144.65,340.68 1152.45,340.6C1165.983,340.467 1174.987,340.923 1179.46,341.97C1212.91,349.8 1234.83,383.2 1225.75,417.21C1218.53,444.26 1194.2,462.98 1165.99,462.99C1134.137,463.01 1096.673,463.013 1053.6,463C1053.463,463 1053.35,463.113 1053.35,463.25Z" style="fill:rgb(25,25,25);fill-rule:nonzero;"/>
                <path d="M1308.94,98.48C1337.34,98.48 1362.14,118.68 1368.59,146C1369.57,150.18 1370.077,157.76 1370.11,168.74L1370.11,616.32C1370.077,627.3 1369.57,634.88 1368.59,639.06C1362.14,666.39 1337.34,686.59 1308.94,686.59C1280.53,686.59 1255.73,666.39 1249.29,639.06C1248.303,634.88 1247.793,627.3 1247.76,616.32L1247.76,168.74C1247.793,157.76 1248.303,150.18 1249.29,146C1255.73,118.68 1280.53,98.48 1308.94,98.48Z" style="fill:rgb(25,25,25);fill-rule:nonzero;"/>
                <path d="M1670.07,572.37C1702.31,572.37 1731.91,559.96 1750.02,532.8C1761.72,515.24 1767.14,492.81 1767.18,471.31C1767.273,424.75 1767.323,320.907 1767.33,159.78C1767.33,121.52 1802.75,92.24 1840.66,99.79C1863.87,104.41 1883.28,123.32 1888.32,146.59C1889.26,150.923 1889.73,159.737 1889.73,173.03C1889.683,366.83 1889.66,463.737 1889.66,463.75C1889.09,500.65 1881.62,536.25 1865.68,569.17C1829,644.95 1752.93,686.61 1670.05,686.59C1587.16,686.57 1511.11,644.88 1474.46,569.09C1458.54,536.16 1451.08,500.56 1450.53,463.66C1450.53,463.647 1450.547,366.74 1450.58,172.94C1450.587,159.647 1451.06,150.833 1452,146.5C1457.05,123.23 1476.47,104.33 1499.68,99.72C1537.6,92.18 1573,121.48 1572.99,159.74C1572.93,320.867 1572.937,424.71 1573.01,471.27C1573.04,492.77 1578.45,515.2 1590.14,532.76C1608.24,559.94 1637.83,572.36 1670.07,572.37Z" style="fill:rgb(25,25,25);fill-rule:nonzero;"/>
                <path d="M2281.15,389.43C2281.119,389.443 2281.092,389.462 2281.068,389.485C2280.976,389.579 2280.974,389.729 2281.064,389.818C2281.088,389.841 2281.118,389.859 2281.15,389.87C2336.19,409.74 2365.65,458.27 2366.5,516.14C2366.5,516.267 2366.4,516.66 2366.2,517.32C2366.05,517.84 2366.54,518.41 2366.52,519.25C2365.987,542.657 2361.41,564.013 2352.79,583.32C2335.95,621.033 2309.143,648.97 2272.37,667.13C2256.943,674.743 2240.567,679.753 2223.24,682.16C2215.333,683.26 2202.147,683.797 2183.68,683.77C2133.953,683.697 2083.813,683.673 2033.26,683.7C2003.59,683.72 1978.02,663.27 1971.53,634.44C1970.503,629.88 1969.99,620.903 1969.99,607.51C1970.003,395.29 1970.017,247.96 1970.03,165.52C1970.04,135.74 1990.14,110.77 2019.37,103.7C2023.617,102.673 2030.623,102.183 2040.39,102.23C2062.27,102.343 2105.753,102.34 2170.84,102.22C2191.953,102.18 2206.21,102.657 2213.61,103.65C2270.92,111.37 2320.17,148.3 2343.84,201.24C2350.38,215.86 2354.67,230.89 2356.71,246.33C2360.62,275.93 2357.07,307.66 2343.14,334.3C2329.76,359.893 2309.097,378.27 2281.15,389.43ZM2095.5,567.03C2114.373,566.997 2141.723,566.997 2177.55,567.03C2200.64,567.06 2219.84,556.44 2230.53,536.7C2238.58,521.82 2239.6,502.77 2233.15,487.23C2224.51,466.43 2205.46,452.67 2182.74,451.49C2175.61,451.11 2167.29,451.75 2160.11,450.58C2150.35,448.987 2141.66,445.27 2134.04,439.43C2103.99,416.38 2103.72,371.17 2132.7,347.64C2143.36,338.993 2155.87,334.667 2170.23,334.66C2186.577,334.66 2200.407,329.207 2211.72,318.3C2229.79,300.89 2234.21,272.52 2222.81,250.44C2212.69,230.82 2193.26,219.01 2171.25,219C2140.59,218.987 2115.347,218.987 2095.52,219C2095.312,219 2095.14,219.172 2095.14,219.38L2095.14,566.67C2095.14,566.867 2095.303,567.03 2095.5,567.03Z" style="fill:rgb(25,25,25);fill-rule:nonzero;"/>
                <path d="M788.9,280.81C817.97,280.81 842.28,301.06 849.11,329.03C850.217,333.583 850.703,342.287 850.57,355.14C850.543,357.24 850.53,400.16 850.53,483.9C850.537,567.647 850.55,610.567 850.57,612.66C850.71,625.52 850.223,634.227 849.11,638.78C842.29,666.75 817.97,687 788.9,687C759.83,687 735.52,666.75 728.69,638.78C727.583,634.227 727.097,625.523 727.23,612.67C727.257,610.57 727.27,567.65 727.27,483.91C727.27,400.163 727.257,357.24 727.23,355.14C727.097,342.287 727.583,333.583 728.69,329.03C735.51,301.06 759.83,280.81 788.9,280.81Z" style="fill:rgb(25,25,25);fill-rule:nonzero;"/>
            </g>
        </g>
    </g>
</svg>
