<svg width="178" height="50" viewBox="0 0 178 50" fill="none" xmlns="http://www.w3.org/2000/svg">
<path d="M26.86 2.85H0V34.06C0.14 34.63 0.59 35.08 1.16 35.22H27.98V3.96C27.83 3.42 27.4 2.99 26.86 2.85ZM22.27 33.33H5.81V19.8H22.27V33.33ZM22.27 17.88H5.81V4.74H22.27V17.88ZM88.14 6.35H100.09V4.54H70.53V6.41H82.11V31.68H69.08V33.57H101.56V31.68H88.14V6.35ZM170.7 12.77V10.97H159.46V12.77H170.7ZM152.98 4.35C152.9 3.93 152.64 3.58 152.29 3.35C152.16 3.26 152.02 3.2 151.86 3.16L150.5 3.08H142.63V36.61H146.87V5.04H148.85L147.88 12.63C147.65 13.3 147.43 14.29 147.78 15.54C151.03 22.86 149.65 25.94 148.71 25.94L148.19 26.04V27.81H148.95C154.19 27.81 154.73 22.33 151.46 14.14C151.72 14.79 152.55 7.52 152.97 4.34L152.98 4.35ZM158.16 6.25H172.1V10.92H176.37V6.01C176.17 5.21 175.54 4.59 174.74 4.4H167.64V0.22H162.43V4.4H154.01V10.92H158.14V6.25H158.16ZM56.38 7.37H65.73V5.51H51.9V0H46.34V5.51H32.51V7.38H41.86C41.72 17.46 35.92 25.84 31.11 27.92V29.7C33.3 29.7 44.34 25.2 46.34 9.06V27.7H40.38V29.57H46.34V36.33H51.9V29.57H57.86V27.7H51.9V9.06C53.9 25.2 64.94 29.7 67.13 29.7V27.92C62.33 25.84 56.52 17.45 56.38 7.37ZM171.03 33.31V19.01H176.33V17.21H154.11V19.01H159.12C159.12 24.68 158.88 33.26 154.1 34.95V36.73C155.11 36.52 158.54 35.39 160.86 32.81C163.16 29.96 164.16 25.37 164.16 19.01H166.35V33.21H166.34V34.97C166.34 34.97 166.34 34.99 166.35 35.01C166.35 35.01 166.35 35.02 166.35 35.03C166.37 35.11 166.4 35.18 166.43 35.25C166.43 35.26 166.44 35.27 166.45 35.28C166.48 35.35 166.52 35.41 166.55 35.47C166.56 35.48 166.57 35.5 166.58 35.51C166.62 35.56 166.66 35.62 166.7 35.67C166.72 35.69 166.73 35.7 166.75 35.72C166.79 35.76 166.84 35.8 166.88 35.84C166.88 35.84 166.89 35.85 166.9 35.86C167.14 36.04 167.43 36.16 167.76 36.18H175.82C176.01 36.15 176.19 36.09 176.35 36.01C176.35 36.01 176.38 35.99 176.39 35.98C176.46 35.94 176.53 35.9 176.6 35.85C176.62 35.84 176.64 35.83 176.65 35.81C176.72 35.75 176.79 35.68 176.85 35.6C176.87 35.57 176.89 35.54 176.91 35.52C176.95 35.47 176.98 35.41 177.01 35.36C177.03 35.32 177.05 35.29 177.07 35.25C177.1 35.17 177.13 35.09 177.15 35.01C177.15 35.01 177.16 34.98 177.16 34.96V33.35H171L171.03 33.31ZM124.49 20.89L129.18 15.72C130.68 14.03 131.33 13.18 131.33 11.06H111.03L111 13L125.17 12.98C125.17 12.98 121.86 16.8 119.9 18.95C119.9 18.95 118.85 19.76 118.85 20.64V21.95H104.63V23.84H118.85V32.59C118.85 33.56 118.14 34.16 117.25 34.16C116.68 34.16 115.47 34.16 114.48 34.16V36C115.2 36.12 120.11 36.52 120.78 36.52C122.45 36.52 124.48 35.13 124.48 31.99V23.83H138.03V21.94H124.48V20.88L124.49 20.89ZM136.65 6.1L133.05 6.13L136.59 0.58H131.73L127.98 6.13H123.83L120.11 0.58H115.38L118.96 6.13H114.6L110.88 0.58H106.15L109.73 6.13H104.42V13.04H109.19V8.02H133.22V13.04H138.13L138.15 7.71C138.13 6.87 137.48 6.18 136.65 6.1Z" fill="black"/>
<path d="M5.90006 43.34C5.90006 43.77 5.90006 44.27 5.92006 44.84C5.94006 45.41 5.96006 46.02 5.99006 46.67C5.79006 46.23 5.58006 45.78 5.35006 45.33C5.12006 44.88 4.88006 44.42 4.63006 43.96L3.08006 41.13H0.810059V49.75H2.84006V47.15C2.84006 46.78 2.84006 46.34 2.81006 45.86C2.79006 45.38 2.76006 44.85 2.72006 44.29C2.97006 44.79 3.20006 45.25 3.43006 45.68C3.65006 46.11 3.86006 46.49 4.05006 46.84L5.66006 49.76H7.93006V41.14H5.90006V43.35V43.34ZM15.5201 49.76H17.6101V41.14H15.5201V49.76ZM29.4601 44.21H26.5801V41.14H24.4701V49.76H26.5801V46.13H29.4601V49.76H31.5701V41.14H29.4601V44.21ZM42.1901 40.91C40.9301 40.91 39.9301 41.32 39.1901 42.13C38.4501 42.94 38.0801 44.05 38.0801 45.45C38.0801 46.85 38.4501 47.96 39.1901 48.77C39.9301 49.58 40.9301 49.99 42.1901 49.99C43.4501 49.99 44.4601 49.58 45.2101 48.77C45.9601 47.95 46.3301 46.85 46.3301 45.45C46.3301 44.05 45.9601 42.94 45.2101 42.13C44.4701 41.31 43.4601 40.91 42.1901 40.91ZM43.6701 47.48C43.3301 47.95 42.8301 48.18 42.1901 48.18C41.5501 48.18 41.0701 47.95 40.7301 47.48C40.3901 47.01 40.2201 46.34 40.2201 45.46C40.2201 44.58 40.3901 43.91 40.7301 43.44C41.0701 42.97 41.5601 42.74 42.1901 42.74C42.8201 42.74 43.3201 42.98 43.6701 43.45C44.0201 43.92 44.1901 44.59 44.1901 45.47C44.1901 46.35 44.0201 47.02 43.6701 47.49V47.48ZM57.6901 43.34C57.6901 43.77 57.6901 44.27 57.7101 44.84C57.7301 45.41 57.7501 46.02 57.7801 46.67C57.5801 46.23 57.3701 45.78 57.1401 45.33C56.9101 44.88 56.6701 44.42 56.4201 43.96L54.8701 41.13H52.6001V49.75H54.6301V47.15C54.6301 46.78 54.6301 46.34 54.6001 45.86C54.5801 45.38 54.5501 44.85 54.5101 44.29C54.7601 44.79 54.9901 45.25 55.2201 45.68C55.4401 46.11 55.6501 46.49 55.8401 46.84L57.4501 49.76H59.7201V41.14H57.6901V43.35V43.34ZM86.2801 41.13H83.7601L80.8401 44.42V41.13H78.7701V49.75H80.8401V47.04L81.5501 46.3L83.8601 49.75H86.3701L82.9701 44.75L86.2901 41.13H86.2801ZM95.1901 40.91C93.9301 40.91 92.9201 41.32 92.1901 42.13C91.4501 42.94 91.0801 44.05 91.0801 45.45C91.0801 46.85 91.4501 47.96 92.1901 48.77C92.9301 49.58 93.9301 49.99 95.1901 49.99C96.4501 49.99 97.4601 49.58 98.2101 48.77C98.9501 47.95 99.3301 46.85 99.3301 45.45C99.3301 44.05 98.9601 42.94 98.2101 42.13C97.4601 41.31 96.4601 40.91 95.1901 40.91ZM96.6701 47.48C96.3301 47.95 95.8301 48.18 95.2001 48.18C94.5701 48.18 94.0801 47.95 93.7401 47.48C93.4001 47.01 93.2301 46.34 93.2301 45.46C93.2301 44.58 93.4001 43.91 93.7401 43.44C94.0801 42.97 94.5701 42.74 95.2001 42.74C95.8301 42.74 96.3301 42.98 96.6701 43.45C97.0101 43.92 97.1901 44.59 97.1901 45.47C97.1901 46.35 97.0201 47.02 96.6701 47.49V47.48ZM108.95 46.71H110.78C110.7 47.18 110.5 47.54 110.18 47.8C109.86 48.06 109.45 48.19 108.96 48.19C108.35 48.19 107.86 47.94 107.49 47.45C107.12 46.96 106.94 46.29 106.94 45.46C106.94 44.63 107.13 43.93 107.5 43.42C107.87 42.91 108.36 42.65 108.97 42.65C109.37 42.65 109.71 42.74 109.98 42.93C110.26 43.12 110.46 43.4 110.59 43.77H112.6C112.43 42.85 112.03 42.14 111.41 41.63C110.78 41.12 109.99 40.87 109.02 40.87C107.74 40.87 106.72 41.29 105.95 42.15C105.18 43 104.8 44.13 104.8 45.54C104.8 46.19 104.89 46.79 105.08 47.34C105.27 47.89 105.54 48.37 105.9 48.77C106.25 49.16 106.65 49.46 107.1 49.66C107.55 49.86 108.05 49.97 108.58 49.97C109.15 49.97 109.65 49.86 110.07 49.64C110.5 49.42 110.86 49.08 111.17 48.64L111.34 49.75H112.65V45.04H108.95V46.7V46.71ZM121.27 41.13L118.31 49.75H120.49L120.96 48.17H123.7L124.2 49.75H126.46L123.56 41.13H121.26H121.27ZM121.46 46.39L122.34 43.42L123.25 46.39H121.45H121.46ZM139.53 41.13H137.01L134.09 44.42V41.13H132.02V49.75H134.09V47.04L134.8 46.3L137.11 49.75H139.62L136.22 44.75L139.54 41.13H139.53ZM149.66 46.52C149.66 47.11 149.55 47.53 149.34 47.79C149.13 48.04 148.78 48.17 148.29 48.17C147.8 48.17 147.44 48.04 147.23 47.79C147.02 47.54 146.91 47.12 146.91 46.52V41.13H144.84V46.25C144.84 46.96 144.91 47.54 145.05 47.97C145.19 48.4 145.41 48.77 145.73 49.07C146.05 49.38 146.43 49.61 146.86 49.76C147.29 49.91 147.77 49.99 148.31 49.99C148.85 49.99 149.33 49.91 149.76 49.76C150.19 49.61 150.57 49.38 150.89 49.07C151.2 48.78 151.42 48.41 151.55 47.98C151.68 47.55 151.75 46.97 151.75 46.25V41.13H149.66V46.52ZM158.98 49.76H161.07V41.14H158.98V49.76ZM173 41.13V43.34C173 43.77 173 44.27 173.02 44.84C173.03 45.41 173.06 46.02 173.09 46.67C172.89 46.23 172.68 45.78 172.45 45.33C172.22 44.88 171.98 44.42 171.73 43.96L170.18 41.13H167.91V49.75H169.94V47.15C169.94 46.78 169.93 46.34 169.91 45.86C169.89 45.38 169.86 44.85 169.82 44.29C170.07 44.79 170.31 45.25 170.53 45.68C170.75 46.11 170.96 46.49 171.15 46.84L172.76 49.76H175.03V41.14H173V41.13Z" fill="#999999"/>
</svg>
