<?xml version="1.0" encoding="UTF-8" standalone="no"?>
<!DOCTYPE svg PUBLIC "-//W3C//DTD SVG 1.1//EN" "http://www.w3.org/Graphics/SVG/1.1/DTD/svg11.dtd">
<svg width="100%" height="100%" viewBox="0 0 584 180" version="1.1" xmlns="http://www.w3.org/2000/svg" xmlns:xlink="http://www.w3.org/1999/xlink" xml:space="preserve" xmlns:serif="http://www.serif.com/" style="fill-rule:evenodd;clip-rule:evenodd;stroke-linejoin:round;stroke-miterlimit:2;">
    <g transform="matrix(1,0,0,1,0.000016,0.000001)">
        <clipPath id="_clip1">
            <path d="M125.906,39.992L125.906,129.39C125.906,133.806 122.322,137.39 117.906,137.39L28.508,137.39C24.092,137.39 20.508,133.806 20.508,129.39L20.508,39.992C20.508,35.576 24.092,31.992 28.508,31.992L117.906,31.992C122.322,31.992 125.906,35.576 125.906,39.992Z"/>
        </clipPath>
        <g clip-path="url(#_clip1)">
            <g transform="matrix(2.107974,0,0,2.107974,-42.731516,-17.058833)">
                <path d="M80,27.064L80,69.474C80,71.568 78.299,73.269 76.205,73.269L33.795,73.269C31.701,73.269 30,71.568 30,69.474L30,27.064C30,24.97 31.701,23.269 33.795,23.269L76.205,23.269C78.299,23.269 80,24.97 80,27.064Z" style="fill:rgb(236,237,234);"/>
            </g>
            <g transform="matrix(2.107974,0,0,2.107974,-42.731516,-17.058833)">
                <path d="M81.5,119.269C106.077,119.269 126,99.346 126,74.769C126,50.192 106.077,30.269 81.5,30.269C56.923,30.269 37,50.192 37,74.769C37,99.346 56.923,119.269 81.5,119.269ZM81.5,114.819C103.619,114.819 121.55,96.888 121.55,74.769C121.55,52.65 103.619,34.719 81.5,34.719C59.381,34.719 41.45,52.65 41.45,74.769C41.45,96.888 59.381,114.819 81.5,114.819Z" style="fill:rgb(252,74,85);"/>
            </g>
            <g transform="matrix(2.107974,0,0,2.107974,-42.731516,-17.058833)">
                <path d="M81.5,114.819C103.619,114.819 121.55,96.888 121.55,74.769C121.55,52.65 103.619,34.719 81.5,34.719C59.381,34.719 41.45,52.65 41.45,74.769C41.45,96.888 59.381,114.819 81.5,114.819ZM81.5,110.369C101.161,110.369 117.1,94.431 117.1,74.769C117.1,55.108 101.161,39.169 81.5,39.169C61.839,39.169 45.9,55.108 45.9,74.769C45.9,94.431 61.839,110.369 81.5,110.369Z" style="fill:rgb(255,176,69);"/>
            </g>
            <g transform="matrix(2.107974,0,0,2.107974,-42.731516,-17.058833)">
                <path d="M81.5,110.369C101.161,110.369 117.1,94.43 117.1,74.769C117.1,55.108 101.161,39.169 81.5,39.169C61.839,39.169 45.9,55.108 45.9,74.769C45.9,94.43 61.839,110.369 81.5,110.369ZM81.5,105.919C98.704,105.919 112.65,91.973 112.65,74.769C112.65,57.565 98.704,43.619 81.5,43.619C64.296,43.619 50.35,57.565 50.35,74.769C50.35,91.973 64.296,105.919 81.5,105.919Z" style="fill:rgb(255,250,109);"/>
            </g>
            <g transform="matrix(2.107974,0,0,2.107974,-42.731516,-17.058833)">
                <path d="M81.5,101.469C96.246,101.469 108.2,89.515 108.2,74.769C108.2,60.023 96.246,48.069 81.5,48.069C66.754,48.069 54.8,60.023 54.8,74.769C54.8,89.515 66.754,101.469 81.5,101.469ZM81.5,97.019C93.788,97.019 103.75,87.057 103.75,74.769C103.75,62.48 93.788,52.519 81.5,52.519C69.212,52.519 59.25,62.48 59.25,74.769C59.25,87.057 69.212,97.019 81.5,97.019Z" style="fill:rgb(59,169,254);"/>
            </g>
            <g transform="matrix(2.107974,0,0,2.107974,-42.731516,-17.058833)">
                <path d="M81.5,97.019C93.788,97.019 103.75,87.057 103.75,74.769C103.75,62.481 93.788,52.519 81.5,52.519C69.212,52.519 59.25,62.481 59.25,74.769C59.25,87.057 69.212,97.019 81.5,97.019ZM81.5,92.569C91.331,92.569 99.3,84.6 99.3,74.769C99.3,64.938 91.331,56.969 81.5,56.969C71.669,56.969 63.7,64.938 63.7,74.769C63.7,84.6 71.669,92.569 81.5,92.569Z" style="fill:rgb(150,93,237);"/>
            </g>
            <g transform="matrix(2.107974,0,0,2.107974,-42.731516,-17.058833)">
                <path d="M81.5,105.919C98.704,105.919 112.65,91.973 112.65,74.769C112.65,57.566 98.704,43.619 81.5,43.619C64.296,43.619 50.35,57.566 50.35,74.769C50.35,91.973 64.296,105.919 81.5,105.919ZM81.5,101.469C96.246,101.469 108.2,89.515 108.2,74.769C108.2,60.023 96.246,48.069 81.5,48.069C66.754,48.069 54.8,60.023 54.8,74.769C54.8,89.515 66.754,101.469 81.5,101.469Z" style="fill:rgb(48,253,47);"/>
            </g>
            <g transform="matrix(2.107974,0,0,2.107974,-42.731516,-17.058833)">
                <path d="M40.215,29.624C40.306,29.35 40.694,29.35 40.785,29.624L41.672,32.288C41.7,32.371 41.762,32.438 41.843,32.471L44.325,33.492C44.573,33.593 44.573,33.945 44.325,34.047L41.843,35.067C41.762,35.1 41.7,35.167 41.672,35.25L40.785,37.914C40.694,38.188 40.306,38.188 40.215,37.914L39.328,35.25C39.3,35.167 39.238,35.1 39.157,35.067L36.675,34.047C36.427,33.945 36.427,33.593 36.675,33.492L39.157,32.471C39.238,32.438 39.3,32.371 39.328,32.288L40.215,29.624Z" style="fill-rule:nonzero;"/>
            </g>
            <g transform="matrix(2.107974,0,0,2.107974,-42.731516,-17.058833)">
                <path d="M35.213,43.699C35.3,43.417 35.7,43.417 35.787,43.699L36.135,44.828C36.161,44.911 36.221,44.979 36.3,45.014L37.383,45.495C37.62,45.6 37.62,45.938 37.383,46.043L36.3,46.524C36.221,46.559 36.161,46.627 36.135,46.71L35.787,47.839C35.7,48.121 35.3,48.121 35.213,47.839L34.865,46.71C34.839,46.627 34.779,46.559 34.7,46.524L33.617,46.043C33.38,45.938 33.38,45.6 33.617,45.495L34.7,45.014C34.779,44.979 34.839,44.911 34.865,44.828L35.213,43.699Z" style="fill-rule:nonzero;"/>
            </g>
        </g>
    </g>
    <g transform="matrix(2.107974,0,0,2.107974,-42.731499,-17.058832)">
        <path d="M98.77,64.805L96.728,37.352L102.208,37.352L103.41,58.673L103.65,58.673L111.141,40.2L117.221,40.2L119.05,58.673L119.29,58.673L126.928,37.352L132.328,37.352L121.77,64.805L115.17,64.805L113.209,46.41L112.969,46.41L105.33,64.805L98.77,64.805ZM142.738,43.048C149.818,43.048 151.712,45.619 151.071,49.891L148.834,64.805L144.394,64.805L144.284,62.075C142.925,63.934 140.095,65.2 136.615,65.2C131.695,65.2 129.535,63.064 130.182,58.752C130.936,53.728 134.363,51.948 139.963,51.948L145.763,51.948L145.905,50.999C146.285,48.467 145.595,47.201 141.595,47.201C140.035,47.201 138.491,47.36 136.889,47.636L137.524,43.404C139.206,43.127 141.178,43.048 142.738,43.048ZM138.276,61.323C141.316,61.323 143.614,60.137 144.813,58.278L145.235,55.469L140.115,55.469C136.955,55.469 135.546,56.062 135.166,58.594C134.887,60.453 135.756,61.323 138.276,61.323ZM153.229,72.716L153.87,68.444C157.55,68.444 159.134,67.218 160.314,64.686L154.98,43.443L160.5,43.443L163.731,59.504L163.971,59.504L171.66,43.443L176.94,43.443L166.567,63.262C162.981,70.105 160.389,72.716 153.229,72.716ZM189.887,47.399L185.127,47.399L183.585,57.684C183.169,60.453 183.509,61.126 185.749,61.126C186.509,61.126 187.115,61.086 187.738,60.928L187.151,64.844C186.293,64.963 185.361,65.042 184.441,65.042C179.281,65.042 177.683,63.697 178.525,58.08L180.127,47.399L177.127,47.399L177.721,43.443L180.721,43.443L181.48,38.38L186.48,38.38L185.721,43.443L190.481,43.443L189.887,47.399ZM200.321,65.2C193.761,65.2 190.323,62.787 191.622,54.124C192.922,45.461 197.083,43.048 203.643,43.048C210.243,43.048 213.682,45.461 212.382,54.124C211.083,62.787 206.921,65.2 200.321,65.2ZM200.896,61.363C204.896,61.363 206.392,59.662 207.222,54.124C208.053,48.586 207.034,46.845 203.074,46.845C199.114,46.845 197.613,48.586 196.782,54.124C195.952,59.662 197.016,61.363 200.896,61.363ZM235.226,64.805L233.758,57.526L222.158,57.526L218.426,64.805L213.026,64.805L227.543,37.352L234.583,37.352L240.786,64.805L235.226,64.805ZM224.37,53.175L232.85,53.175L230.569,41.98L230.089,41.98L224.37,53.175ZM256.265,65.2C247.865,65.2 243.216,62.589 244.943,51.078C246.533,40.477 252.261,36.956 260.781,36.956C263.301,36.956 266.528,37.312 267.993,37.945L267.304,42.534C265.377,41.782 263.03,41.426 260.47,41.426C254.83,41.426 251.722,43.483 250.583,51.078C249.378,59.108 251.603,60.809 257.323,60.809C258.563,60.809 259.809,60.77 260.851,60.493L261.871,53.689L256.871,53.689L257.524,49.337L267.444,49.337L265.243,64.013C263.068,64.646 259.745,65.2 256.265,65.2ZM271.261,64.805L275.379,37.352L280.619,37.352L276.501,64.805L271.261,64.805Z" style="fill-rule:nonzero;"/>
    </g>
</svg>
