<?xml version="1.0" encoding="UTF-8" standalone="no"?>
<!DOCTYPE svg PUBLIC "-//W3C//DTD SVG 1.1//EN" "http://www.w3.org/Graphics/SVG/1.1/DTD/svg11.dtd">
<svg width="100%" height="100%" viewBox="0 0 584 180" version="1.1" xmlns="http://www.w3.org/2000/svg" xmlns:xlink="http://www.w3.org/1999/xlink" xml:space="preserve" xmlns:serif="http://www.serif.com/" style="fill-rule:evenodd;clip-rule:evenodd;stroke-linejoin:round;stroke-miterlimit:2;">
    <g transform="matrix(0.595317,0,0,0.595317,1.887074,41.166202)">
        <g>
            <path d="M668.71,16.9C668.82,16.9 668.84,16.9 668.91,16.83C681.58,3.94 699.07,-1.2 716.93,0.71C729.897,2.103 741.083,7.343 750.49,16.43C750.79,16.718 751.27,16.718 751.57,16.43C765.13,3.15 783.52,-1.82 802.28,1.13C827.11,5.03 844.48,23.64 848.07,48.59C848.523,51.743 848.747,55.523 848.74,59.93C848.687,104.877 848.69,129.573 848.75,134.02C848.837,140.807 846.55,145.737 841.89,148.81C833.18,154.55 821.74,151.04 817.98,141.26C817.353,139.627 817.043,136.583 817.05,132.13C817.103,97.423 817.103,71.963 817.05,55.75C816.93,21.05 767.36,21.39 767.26,55.01C767.173,83.017 767.167,108.733 767.24,132.16C767.253,136.8 766.797,140.13 765.87,142.15C763.643,146.997 759.737,150.09 754.15,151.43C753.317,151.63 751.5,151.63 748.7,151.43C743.23,151.03 738.37,147.06 736.13,142.38C735.223,140.473 734.773,137.117 734.78,132.31C734.867,92.557 734.86,66.71 734.76,54.77C734.6,36.52 718.44,25.89 701.41,31.11C690.28,34.53 684.92,44.9 684.89,56.3C684.803,87.033 684.803,112.433 684.89,132.5C684.91,137.08 684.467,140.353 683.56,142.32C681.393,147.013 677.517,150.047 671.93,151.42C671.71,151.473 670.633,151.5 668.7,151.5C666.767,151.5 665.69,151.473 665.47,151.42C659.883,150.047 656.007,147.013 653.84,142.32C652.933,140.353 652.49,137.08 652.51,132.5C652.603,112.433 652.607,87.033 652.52,56.3C652.49,44.9 647.13,34.53 636.01,31.11C618.98,25.88 602.81,36.51 602.65,54.76C602.55,66.7 602.54,92.547 602.62,132.3C602.627,137.107 602.177,140.463 601.27,142.37C599.03,147.05 594.17,151.02 588.7,151.42C585.9,151.62 584.083,151.62 583.25,151.42C577.663,150.08 573.757,146.987 571.53,142.14C570.603,140.12 570.147,136.79 570.16,132.15C570.24,108.723 570.237,83.007 570.15,55C570.06,21.38 520.49,21.03 520.36,55.73C520.307,71.943 520.303,97.403 520.35,132.11C520.357,136.563 520.047,139.607 519.42,141.24C515.66,151.02 504.22,154.53 495.51,148.79C490.85,145.717 488.563,140.787 488.65,134C488.71,129.553 488.717,104.857 488.67,59.91C488.663,55.503 488.887,51.723 489.34,48.57C492.94,23.62 510.31,5.01 535.14,1.11C553.9,-1.83 572.29,3.14 585.85,16.42C586.15,16.708 586.63,16.708 586.93,16.42C596.337,7.333 607.523,2.093 620.49,0.7C638.35,-1.2 655.84,3.94 668.5,16.83C668.57,16.9 668.6,16.9 668.71,16.9Z" style="fill:rgb(25,25,25);fill-rule:nonzero;"/>
            <path d="M0,136.56L0,134.13C0.427,131.717 0.817,130.153 1.17,129.44C19.81,91.193 38.593,52.67 57.52,13.87C59.96,8.87 61.953,5.717 63.5,4.41C69.21,-0.42 78.26,-0.54 84.17,4.32C85.843,5.7 87.8,8.693 90.04,13.3C123.093,81.227 141.107,118.16 144.08,124.1C146.473,128.887 147.7,132.413 147.76,134.68C147.92,140.9 145.12,145.783 139.36,149.33C132.28,153.7 121.58,150.5 117.77,142.72C99.45,105.327 84.93,75.557 74.21,53.41C74.154,53.299 74.04,53.228 73.915,53.228C73.79,53.228 73.676,53.299 73.62,53.41L41.6,119.08C41.591,119.098 41.584,119.118 41.58,119.138C41.544,119.287 41.633,119.438 41.777,119.473C41.797,119.478 41.819,119.48 41.84,119.48C56.787,119.52 67.523,119.51 74.05,119.45C78.51,119.417 81.717,119.843 83.67,120.73C97.02,126.82 96.26,145.8 82.17,150.53C80.537,151.077 77.563,151.33 73.25,151.29C64.917,151.21 47.43,151.217 20.79,151.31C15.61,151.33 11.813,150.823 9.4,149.79C4.167,147.55 1.033,143.14 0,136.56Z" style="fill:rgb(25,25,25);fill-rule:nonzero;"/>
            <circle cx="180.36" cy="16.63" r="15.95" style="fill:rgb(1,67,120);"/>
            <path d="M291.27,153L281.15,153C261.11,151.28 244.413,143.433 231.06,129.46C201.54,98.56 203.68,49.47 234.77,20.73C264.06,-6.33 309.27,-5.8 338.52,21.36C338.589,21.423 338.629,21.512 338.629,21.605C338.629,21.693 338.593,21.778 338.53,21.84L317.74,42.63C317.52,42.85 317.166,42.872 316.92,42.68C313.827,40.22 311.86,38.733 311.02,38.22C293.13,27.24 271.57,28.79 255.92,42.5C248.793,48.74 243.967,56.887 241.44,66.94C240.067,72.42 239.957,78.44 241.11,85C244.62,104.95 261.32,120.38 281.41,122.5C294.503,123.88 306.393,120.023 317.08,110.93C317.232,110.803 317.456,110.812 317.59,110.95L338.49,131.84C338.568,131.92 338.612,132.028 338.612,132.14C338.612,132.262 338.561,132.378 338.47,132.46C325.043,144.693 309.31,151.54 291.27,153Z" style="fill:rgb(25,25,25);fill-rule:nonzero;"/>
            <path d="M418.29,153L408.55,153C359.36,149.2 326.09,101.98 340.71,54.21C353.24,13.25 397.29,-8.75 437.78,4.69C453.1,9.783 465.803,19.25 475.89,33.09C476.099,33.374 476.165,33.743 476.07,34.09C473.703,42.837 472.52,49.893 472.52,55.26C472.513,93.8 472.503,116.907 472.49,124.58C472.49,124.942 472.363,125.293 472.13,125.57C458.03,142.023 440.083,151.167 418.29,153ZM459.33,76.87C459.33,51.695 438.615,30.98 413.44,30.98C388.265,30.98 367.55,51.695 367.55,76.87C367.55,102.045 388.265,122.76 413.44,122.76C438.615,122.76 459.33,102.045 459.33,76.87Z" style="fill:rgb(25,25,25);fill-rule:nonzero;"/>
            <path d="M917.7,123C929.95,123.01 939.28,115.79 941.91,103.93C942.437,101.537 942.703,97.94 942.71,93.14C942.75,61.067 942.753,36.757 942.72,20.21C942.713,16.203 942.99,13.43 943.55,11.89C948.42,-1.56 967.54,-2.55 973.14,10.86C973.887,12.633 974.26,15.457 974.26,19.33C974.293,53.077 974.247,79.373 974.12,98.22C974.073,105.527 972.32,113.027 968.86,120.72C959.6,141.34 940.12,152.51 917.68,152.49C895.25,152.48 875.77,141.29 866.54,120.65C863.087,112.957 861.343,105.457 861.31,98.15C861.203,79.303 861.187,53.007 861.26,19.26C861.267,15.387 861.643,12.563 862.39,10.79C868.01,-2.61 887.13,-1.6 891.98,11.86C892.54,13.4 892.813,16.173 892.8,20.18C892.747,36.727 892.72,61.037 892.72,93.11C892.727,97.91 892.99,101.507 893.51,103.9C896.12,115.77 905.45,122.99 917.7,123Z" style="fill:rgb(25,25,25);fill-rule:nonzero;"/>
            <g transform="matrix(0.999998,0.001745,-0.001745,0.999998,180.37,99.83)">
                <path d="M15.85,-36.32L15.85,36.32C15.85,45.068 8.748,52.17 0,52.17C-8.748,52.17 -15.85,45.068 -15.85,36.32L-15.85,-36.32C-15.85,-45.068 -8.748,-52.17 0,-52.17C8.748,-52.17 15.85,-45.068 15.85,-36.32Z" style="fill:rgb(25,25,25);"/>
            </g>
        </g>
    </g>
</svg>
