<?xml version="1.0" encoding="UTF-8" standalone="no"?>
<!DOCTYPE svg PUBLIC "-//W3C//DTD SVG 1.1//EN" "http://www.w3.org/Graphics/SVG/1.1/DTD/svg11.dtd">
<svg width="100%" height="100%" viewBox="0 0 584 180" version="1.1" xmlns="http://www.w3.org/2000/svg" xmlns:xlink="http://www.w3.org/1999/xlink" xml:space="preserve" xmlns:serif="http://www.serif.com/" style="fill-rule:evenodd;clip-rule:evenodd;stroke-linejoin:round;stroke-miterlimit:2;">
    <g transform="matrix(0.812122,0,0,0.812122,8.124002,51.807658)">
        <path d="M248.261,22.19L230.466,22.19L251.968,88.512L271.123,88.512L292.625,22.19L274.83,22.19L261.365,72.149L248.261,22.19Z" style="fill-rule:nonzero;"/>
        <rect x="0" y="0" width="18.413" height="88.512" style="fill-rule:nonzero;"/>
        <rect x="36.579" y="0" width="18.413" height="88.512" style="fill-rule:nonzero;"/>
        <path d="M73.155,0L127.652,0L127.652,14.752L91.568,14.752L91.568,35.826L125.181,35.826L125.181,50.578L91.568,50.578L91.568,73.76L127.652,73.76L127.652,88.512L73.155,88.512L73.155,0Z" style="fill-rule:nonzero;"/>
        <rect x="138.896" y="0" width="17.424" height="88.512" style="fill-rule:nonzero;"/>
        <path d="M166.824,55.289C166.824,31.116 178.811,20.703 197.471,20.703C216.131,20.703 226.759,30.992 226.759,55.537L226.759,59.504L184.001,59.504C184.619,73.884 188.944,78.719 197.224,78.719C203.773,78.719 207.851,74.876 208.593,68.182L226.017,68.182C224.905,82.81 212.795,90 197.224,90C177.452,90 166.824,79.463 166.824,55.289ZM209.582,47.975C208.717,35.826 204.515,31.86 197.224,31.86C189.933,31.86 185.36,35.95 184.125,47.975L209.582,47.975Z" style="fill-rule:nonzero;"/>
        <path d="M295.962,55.289C295.962,31.116 307.949,20.703 326.609,20.703C345.269,20.703 355.897,30.992 355.897,55.537L355.897,59.504L313.139,59.504C313.757,73.884 318.082,78.719 326.362,78.719C332.911,78.719 336.989,74.876 337.731,68.182L355.155,68.182C354.043,82.81 341.932,90 326.362,90C306.589,90 295.962,79.463 295.962,55.289ZM338.719,47.975C337.854,35.826 333.653,31.86 326.362,31.86C319.071,31.86 314.498,35.95 313.263,47.975L338.719,47.975Z" style="fill-rule:nonzero;"/>
        <path d="M438.443,0L456.856,0L456.856,73.76L491.457,73.76L491.457,88.512L438.443,88.512L438.443,0Z" style="fill-rule:nonzero;"/>
        <path d="M495.783,55.289C495.783,30 507.399,20.703 522.352,20.703C529.766,20.703 536.563,24.917 539.282,29.38L539.282,22.19L557.077,22.19L557.077,88.512L539.776,88.512L539.776,80.703C537.181,85.909 529.89,90 521.857,90C506.04,90 495.783,79.835 495.783,55.289ZM526.924,33.719C535.574,33.719 540.27,40.289 540.27,55.289C540.27,70.289 535.574,76.984 526.924,76.984C518.274,76.984 513.331,70.289 513.331,55.289C513.331,40.289 518.274,33.719 526.924,33.719Z"/>
        <path d="M587.847,80.703L587.847,88.512L570.547,88.512L570.547,0L587.971,0L587.971,29.38C590.937,24.793 597.857,20.703 605.272,20.703C619.854,20.703 631.47,30 631.47,55.289C631.47,80.579 620.101,90 604.901,90C596.869,90 590.319,85.909 587.847,80.703ZM600.329,33.843C608.979,33.843 613.922,40.289 613.922,55.289C613.922,70.289 608.979,76.984 600.329,76.984C591.678,76.984 586.982,70.289 586.982,55.289C586.982,40.289 591.678,33.843 600.329,33.843Z"/>
        <path d="M638.638,68.802L656.062,68.802C656.309,75.744 660.016,79.091 666.566,79.091C673.115,79.091 676.823,76.116 676.823,70.909C676.823,66.198 673.981,64.463 667.802,62.975L662.488,61.612C647.412,57.769 639.873,53.678 639.873,41.157C639.873,28.636 651.49,20.703 666.319,20.703C681.148,20.703 692.394,26.529 692.888,40.289L675.463,40.289C675.093,34.215 671.385,31.612 666.072,31.612C660.758,31.612 657.05,34.215 657.05,39.174C657.05,43.76 660.016,45.496 665.207,46.736L670.644,48.099C684.979,51.694 694,55.289 694,68.678C694,82.066 682.137,90 666.072,90C648.647,90 639.008,83.43 638.638,68.802Z" style="fill-rule:nonzero;"/>
        <path d="M384.072,49.463C384.072,39.05 389.015,33.347 396.677,33.347C402.979,33.347 406.563,37.314 406.563,45.868L406.563,88.512L423.987,88.512L423.987,43.141C423.987,27.769 415.337,20.703 402.732,20.703C394.205,20.703 387.162,25.041 384.072,30.744L384.072,22.19L366.401,22.19L366.401,88.512L384.072,88.512L384.072,49.463Z" style="fill-rule:nonzero;"/>
    </g>
</svg>
